<?xml version="1.0" standalone="no"?>
<!DOCTYPE svg PUBLIC "-//W3C//DTD SVG 20010904//EN"
 "http://www.w3.org/TR/2001/REC-SVG-20010904/DTD/svg10.dtd">
<svg version="1.0" xmlns="http://www.w3.org/2000/svg"
 width="3500.000000pt" height="1440.000000pt" viewBox="0 0 3500.000000 1440.000000"
 preserveAspectRatio="xMidYMid meet">
<metadata>
Created by potrace 1.16, written by Peter Selinger 2001-2019
</metadata>
<g transform="translate(0.000000,1440.000000) scale(0.100000,-0.100000)"
fill="#000000" stroke="none">
<path d="M12783 13843 c-16 -27 -351 -577 -743 -1223 -392 -646 -715 -1177
-716 -1179 -2 -2 -1252 254 -2779 569 -1526 315 -2778 570 -2781 567 -7 -7
2315 -12049 2325 -12060 4 -4 674 842 1489 1880 l1482 1888 751 270 c413 149
755 273 761 276 8 5 91 1428 83 1437 -2 2 -2160 -504 -2182 -513 -10 -3 -13
-175 -13 -809 l0 -805 -1177 -1801 c-744 -1139 -1180 -1797 -1186 -1791 -8 8
-812 8031 -805 8036 4 2 3937 256 3957 255 11 0 13 111 10 683 l-4 682 770
1812 c423 997 770 1811 772 1810 2 -3 -1176 -5359 -1180 -5363 -2 -2 -604 -36
-1338 -75 -734 -39 -1337 -74 -1340 -77 -3 -4 42 -635 102 -1402 l108 -1395
-525 -2473 c-289 -1361 -524 -2478 -522 -2484 2 -5 370 1202 817 2684 448
1481 817 2700 822 2709 6 11 343 100 1185 312 647 162 1180 299 1184 304 4 4
163 1637 354 3628 191 1991 351 3628 355 3638 4 12 219 -763 578 -2085 l572
-2103 -63 -850 c-35 -467 -61 -852 -59 -854 5 -7 1496 187 1503 196 14 15 220
1397 210 1403 -5 3 -253 17 -551 30 -463 20 -542 26 -549 39 -21 41 -1613
4218 -1614 4236 -1 23 -14 45 -26 45 -4 0 -21 -21 -37 -47z"/>
<path d="M12850 13846 c0 -5 438 -686 972 -1514 l973 -1507 -3 -55 c-1 -30
-14 -246 -28 -478 -14 -233 -24 -425 -22 -427 2 -2 274 -30 603 -63 l600 -58
7 30 c18 77 169 1269 162 1276 -5 4 -292 87 -639 184 -346 97 -640 182 -652
189 -12 6 -453 548 -979 1202 -526 655 -965 1199 -975 1210 -11 11 -19 16 -19
11z"/>
<path d="M14127 7715 c-593 -79 -1081 -146 -1085 -150 -7 -6 -72 -2066 -66
-2074 2 -3 2024 638 2032 645 2 1 48 373 102 826 55 452 102 840 105 861 3 20
2 37 -2 36 -5 -1 -493 -65 -1086 -144z"/>
</g>
</svg>
