<?xml version="1.0" standalone="no"?>
<!DOCTYPE svg PUBLIC "-//W3C//DTD SVG 20010904//EN"
 "http://www.w3.org/TR/2001/REC-SVG-20010904/DTD/svg10.dtd">
<svg version="1.0" xmlns="http://www.w3.org/2000/svg"
 width="275.000000pt" height="183.000000pt" viewBox="0 0 275.000000 183.000000"
 preserveAspectRatio="xMidYMid meet">
<metadata>
Created by potrace 1.16, written by Peter Selinger 2001-2019
</metadata>
<g transform="translate(0.000000,183.000000) scale(0.100000,-0.100000)"
fill="#000000" stroke="none">
<path d="M1378 1683 c-10 -2 -18 -9 -18 -14 0 -5 -6 -9 -14 -9 -7 0 -19 -6
-25 -13 -6 -8 -30 -19 -52 -26 -44 -13 -69 -32 -69 -50 0 -6 -9 -11 -20 -11
-22 0 -26 -20 -8 -38 8 -8 8 -12 1 -12 -6 0 -13 -9 -16 -21 -3 -12 -10 -18
-16 -15 -5 3 -18 -5 -29 -19 -11 -14 -24 -25 -29 -25 -31 0 -62 -97 -42 -132
11 -20 -11 -88 -28 -88 -8 0 -17 10 -22 23 -5 12 -12 21 -17 19 -5 -1 -10 19
-11 45 -2 36 3 56 21 83 12 19 38 59 56 88 32 51 33 52 69 46 l36 -7 -20 22
c-19 22 -19 24 -2 36 9 6 17 16 17 22 0 5 13 22 30 38 38 37 30 45 -12 13 -18
-13 -48 -30 -65 -37 -18 -8 -33 -17 -33 -22 0 -5 -6 -9 -14 -9 -8 0 -21 -8
-28 -18 -7 -10 -21 -21 -31 -25 -10 -4 -24 -20 -31 -37 -7 -17 -16 -27 -20
-23 -5 5 -5 -3 -1 -16 5 -16 4 -21 -4 -17 -7 5 -11 -2 -11 -18 0 -14 5 -28 10
-31 6 -3 10 -23 10 -44 0 -31 -6 -42 -26 -56 -14 -9 -29 -13 -32 -9 -4 4 -2 9
4 11 6 2 9 15 6 29 -3 15 1 29 8 34 7 4 9 13 6 19 -11 17 -26 13 -26 -6 -1
-17 -1 -17 -14 0 -12 16 -14 16 -20 1 -9 -23 -8 -24 14 -24 11 0 20 -4 20 -10
0 -5 -9 -14 -20 -20 -11 -6 -20 -15 -20 -21 0 -6 9 -13 20 -16 14 -4 20 -14
20 -34 0 -23 -4 -29 -22 -29 -13 0 -32 -3 -44 -6 -17 -5 -22 0 -27 25 -9 43
-23 39 -46 -14 -18 -40 -18 -48 -5 -72 7 -16 14 -34 14 -41 0 -7 5 -23 11 -34
9 -17 13 -18 20 -7 5 8 9 9 9 3 0 -6 -9 -21 -20 -34 l-20 -23 0 23 c0 28 -20
102 -32 115 -15 17 -8 90 12 123 27 44 26 46 -17 39 -36 -6 -36 -5 -14 7 l24
13 -31 11 c-17 6 -32 8 -35 6 -2 -3 -7 2 -10 11 -7 17 6 19 34 5 12 -7 25 -7
36 -1 14 7 10 11 -24 20 -25 7 -43 19 -46 29 -3 11 -5 7 -6 -9 0 -15 -8 -32
-15 -39 -8 -6 -20 -28 -27 -48 -14 -43 -32 -58 -78 -67 -26 -5 -37 -3 -43 9
-5 9 -18 16 -28 16 -11 0 -20 4 -20 8 0 10 -87 72 -100 72 -6 0 -10 9 -10 19
0 11 -5 21 -11 23 -6 2 -13 20 -14 40 -5 65 -25 92 -73 100 -29 5 -57 19 -83
43 -34 30 -46 35 -89 35 l-50 0 0 -805 0 -805 609 0 609 0 10 29 c7 20 7 32
-1 40 -8 8 -8 11 0 11 7 0 11 9 10 20 -1 11 -5 20 -9 20 -4 0 -7 4 -5 9 1 5
-7 17 -18 26 -11 9 -13 13 -5 9 9 -4 7 2 -5 14 -12 13 -35 22 -57 24 -20 1
-36 6 -35 11 3 16 -56 20 -68 5 -14 -19 -78 -48 -104 -48 -12 0 -29 4 -39 9
-9 4 -49 25 -88 44 -39 20 -74 34 -77 30 -4 -3 -7 -2 -7 3 0 6 -17 11 -37 12
-46 3 -89 24 -128 60 -16 15 -33 26 -38 24 -5 -1 -6 2 -2 8 7 11 -15 70 -26
70 -4 0 -9 10 -13 22 -5 19 -8 21 -16 8 -6 -9 -10 -10 -10 -3 0 6 4 15 10 18
15 10 12 25 -6 25 -11 0 -13 6 -9 20 3 10 -1 33 -10 50 -9 18 -15 34 -12 36 4
4 39 -65 97 -188 33 -73 76 -114 129 -124 27 -6 30 -4 25 11 -7 17 -5 17 24
-1 31 -18 33 -18 65 -1 23 12 43 16 61 11 18 -4 31 -2 36 5 10 17 43 21 52 7
6 -8 8 -8 8 1 0 15 40 4 40 -11 0 -6 5 -4 10 6 8 14 15 14 40 5 17 -6 30 -16
30 -22 1 -15 51 -49 59 -39 9 13 36 11 55 -5 10 -9 16 -10 16 -2 0 6 14 11 32
11 23 0 40 10 69 40 33 35 37 43 29 69 -13 45 -16 48 -52 46 -18 -1 -41 3 -51
9 -14 8 -20 8 -27 -4 -8 -12 -12 -12 -18 -2 -5 7 -13 12 -18 11 -5 -1 -17 1
-26 5 -11 5 -25 1 -40 -13 -21 -20 -23 -21 -30 -4 -3 10 -7 25 -7 33 0 12 2
11 7 -2 6 -15 9 -15 26 -2 11 8 16 14 11 14 -4 0 0 9 10 20 16 18 16 20 1 26
-10 4 -25 -1 -36 -11 -12 -11 -20 -13 -20 -7 0 7 -5 12 -11 12 -6 0 -9 -9 -6
-20 3 -13 0 -20 -9 -20 -8 0 -17 -7 -20 -15 -8 -19 -24 -19 -24 0 0 8 -6 15
-14 15 -8 0 -16 7 -19 14 -4 10 -1 13 9 9 19 -7 90 65 96 100 3 16 1 27 -6 27
-6 0 -4 5 4 10 12 8 13 11 1 19 -9 6 -10 11 -2 15 6 4 11 18 11 32 0 13 5 24
11 24 5 0 17 16 25 35 8 19 19 35 24 35 5 0 12 11 16 24 4 17 11 23 21 19 8
-3 19 0 24 8 7 11 12 12 29 2 31 -20 35 -16 37 37 1 48 -11 68 -20 33 -2 -10
-4 -4 -3 14 0 17 4 29 9 26 4 -2 7 5 7 17 0 12 4 19 9 16 5 -3 16 13 25 37 11
30 28 50 56 67 23 14 43 35 46 48 4 12 10 22 15 22 14 0 11 28 -4 42 -8 6 -12
23 -9 37 2 15 0 21 -5 15 -5 -7 -16 -2 -31 17 -12 15 -19 30 -14 33 12 7 72
-36 72 -51 0 -7 5 -13 10 -13 9 0 14 15 11 34 -1 4 4 14 10 22 13 16 109 20
109 4 0 -5 6 -10 13 -10 24 0 67 -25 68 -40 6 -65 5 -141 -2 -146 -5 -3 -6
-11 -2 -17 9 -15 11 -187 1 -181 -3 2 -10 -1 -13 -7 -8 -11 19 -41 48 -52 10
-4 17 -17 17 -32 0 -16 14 -41 39 -67 87 -90 143 -102 200 -43 37 38 51 43 51
20 0 -8 9 -15 20 -15 27 0 25 -14 -5 -34 -14 -9 -25 -21 -25 -27 0 -13 -49
-57 -72 -64 -10 -4 -18 -12 -18 -20 0 -15 -22 -25 -53 -25 -12 0 -35 -7 -51
-15 -15 -8 -35 -15 -42 -15 -20 0 -17 -28 4 -33 9 -3 2 -5 -15 -6 -23 -1 -33
-6 -33 -17 0 -12 7 -14 28 -10 15 3 52 8 84 12 51 6 57 4 68 -16 6 -12 9 -31
7 -42 -5 -16 -3 -17 9 -7 8 6 17 9 21 5 3 -3 1 -6 -6 -6 -14 0 -12 -23 7 -105
l10 -40 1 40 c2 55 11 87 25 82 6 -2 16 18 23 47 12 52 9 72 -7 46 -12 -19
-66 -22 -81 -4 -9 11 -8 14 5 14 31 0 106 56 106 79 0 8 11 29 25 47 14 18 25
36 25 40 0 4 8 13 18 20 16 13 16 15 -2 28 -18 14 -18 16 4 51 21 34 25 36 61
30 34 -6 39 -4 39 12 0 11 -13 29 -30 41 -16 13 -30 30 -30 40 0 9 39 55 86
101 47 46 108 118 136 160 27 42 61 88 74 102 24 25 25 28 11 60 -8 19 -24 43
-36 53 -11 11 -21 25 -21 32 0 7 -9 18 -20 24 -11 6 -20 16 -20 23 0 7 -27 25
-60 42 -34 16 -82 48 -108 70 -56 47 -95 70 -138 79 -17 4 -40 16 -52 26 -36
34 -182 62 -291 56 -142 -7 -184 -8 -206 -2 -11 2 -28 2 -37 -1z m112 -188 c7
-9 21 -13 31 -10 13 5 19 1 19 -9 0 -9 14 -25 31 -35 l32 -19 -44 3 c-24 3
-36 2 -26 -1 22 -7 25 -74 2 -74 -8 0 -15 5 -15 10 0 6 -11 10 -25 10 -21 0
-25 5 -25 30 0 28 -3 30 -34 30 -19 0 -38 -4 -41 -10 -10 -16 -41 -12 -79 11
-46 27 -46 44 0 59 29 10 37 9 47 -3 7 -8 27 -18 45 -22 30 -6 32 -5 32 19 0
30 29 36 50 11z"/>
<path d="M2720 1520 c0 -5 -9 -10 -19 -10 -11 0 -21 -4 -23 -8 -6 -15 -121
-72 -145 -72 -12 0 -53 5 -91 12 -62 10 -71 10 -93 -6 -14 -11 -17 -16 -6 -13
9 4 17 2 17 -3 0 -6 -8 -10 -17 -11 -11 0 -13 -3 -5 -6 6 -2 12 -18 12 -34 0
-16 9 -43 20 -61 28 -47 25 -77 -13 -119 -17 -20 -43 -51 -56 -69 l-23 -33 46
-93 c26 -51 62 -112 82 -135 19 -23 47 -63 61 -88 57 -99 140 -190 175 -191 9
0 19 -4 22 -9 3 -5 16 -11 28 -14 13 -2 31 -8 41 -12 16 -7 17 20 17 489 0
434 -2 496 -15 496 -8 0 -15 -4 -15 -10z"/>
<path d="M2450 730 c0 -7 -7 -9 -16 -6 -13 5 -14 2 -9 -11 15 -33 18 -83 6
-83 -7 0 -10 -4 -7 -8 3 -5 -2 -21 -10 -37 -10 -19 -11 -31 -4 -35 11 -7 -6
-70 -22 -81 -6 -3 -8 -41 -6 -83 3 -79 -5 -100 -17 -44 l-7 32 -19 -23 c-11
-13 -19 -32 -19 -42 0 -19 4 -20 75 -23 12 -1 23 -12 29 -29 6 -15 13 -27 18
-27 4 0 8 -16 8 -36 0 -25 -7 -43 -22 -55 -28 -25 -32 -19 -18 30 16 61 -1 83
-60 77 -58 -6 -58 -6 -37 -15 17 -6 16 -10 -12 -41 -17 -19 -26 -36 -21 -38 6
-2 10 -15 10 -28 0 -15 6 -24 15 -24 8 0 15 -7 15 -15 0 -19 -24 -19 -40 0
-16 19 -40 19 -40 0 0 -9 9 -15 25 -15 29 0 25 -25 -6 -33 -10 -3 -19 -12 -19
-21 0 -14 28 -16 255 -16 l255 0 0 220 c0 148 -3 220 -11 220 -5 0 -8 3 -6 8
2 4 -7 17 -20 29 -17 16 -23 18 -23 8 0 -20 -9 -19 -32 2 -18 16 -19 16 -12
-3 4 -10 -8 1 -27 26 -18 25 -39 51 -46 58 -7 7 -13 17 -13 21 0 4 -8 16 -18
27 -10 10 -30 40 -45 66 -28 49 -47 68 -47 48z"/>
<path d="M1340 274 c-10 -11 -9 -14 4 -14 18 0 123 -103 119 -117 -2 -5 9 -23
24 -39 17 -18 26 -38 24 -53 -1 -13 1 -21 7 -17 5 3 12 -3 15 -14 4 -16 14
-20 51 -20 25 0 46 4 46 10 0 13 -36 31 -45 22 -4 -4 -5 4 -1 18 3 14 3 19 0
13 -9 -20 -24 -15 -24 8 0 12 -8 23 -20 26 -26 7 -26 28 0 46 36 25 3 77 -48
77 -10 0 -33 10 -52 23 -61 40 -87 48 -100 31z"/>
<path d="M2043 159 c-4 -14 -12 -19 -24 -16 -12 3 -16 0 -12 -10 3 -8 0 -19
-8 -24 -11 -6 -11 -11 -1 -21 6 -6 12 -25 12 -41 0 -16 4 -26 10 -22 6 3 10
-1 10 -9 0 -13 13 -16 65 -16 45 0 65 4 65 13 0 6 3 23 7 37 6 25 6 25 -15 7
-20 -18 -21 -18 -40 1 -14 14 -17 23 -10 30 7 7 5 18 -6 33 -9 13 -16 31 -16
41 0 25 -31 23 -37 -3z"/>
</g>
</svg>
