<?xml version="1.0" standalone="no"?>
<!DOCTYPE svg PUBLIC "-//W3C//DTD SVG 20010904//EN"
 "http://www.w3.org/TR/2001/REC-SVG-20010904/DTD/svg10.dtd">
<svg version="1.0" xmlns="http://www.w3.org/2000/svg"
 width="222.000000pt" height="148.000000pt" viewBox="0 0 222.000000 148.000000"
 preserveAspectRatio="xMidYMid meet">
<metadata>
Created by potrace 1.16, written by Peter Selinger 2001-2019
</metadata>
<g transform="translate(0.000000,148.000000) scale(0.100000,-0.100000)"
fill="#000000" stroke="none">
<path d="M1378 1371 c-10 -19 -10 -25 0 -28 6 -3 12 -13 12 -23 0 -10 6 -20
13 -23 9 -3 7 -10 -6 -25 -18 -20 -18 -20 0 -25 14 -4 14 -5 -4 -6 -13 0 -23
3 -23 8 0 10 -50 25 -57 17 -3 -2 16 -25 41 -51 41 -41 59 -75 39 -75 -4 0
-24 18 -44 40 -45 49 -78 52 -120 11 l-29 -30 22 -20 c26 -25 76 -36 128 -27
34 5 40 4 40 -12 0 -10 -13 -31 -30 -47 -16 -16 -30 -32 -30 -37 0 -17 23 -7
50 22 50 54 101 20 130 -86 7 -24 16 -44 19 -44 10 0 67 62 80 87 14 27 5 52
-17 47 -9 -3 -30 4 -46 13 -21 13 -29 27 -31 52 -2 19 -11 41 -20 48 -16 11
-16 13 11 23 22 9 31 8 39 -3 5 -8 32 -16 58 -19 48 -6 49 -5 65 31 9 20 18
38 19 40 2 3 28 -6 58 -18 48 -20 60 -22 85 -11 34 14 34 14 20 40 -13 25 -80
44 -186 54 -23 2 -48 7 -55 12 -7 4 -36 9 -64 11 -27 2 -51 7 -53 13 -2 5 -10
10 -18 10 -8 0 -15 6 -15 13 -1 6 -2 19 -3 27 -1 9 -13 14 -33 15 -24 1 -35
-5 -45 -24z"/>
<path d="M963 1371 c-28 -9 -68 -31 -88 -47 -21 -16 -48 -37 -61 -47 -33 -26
-58 -15 -51 21 6 32 0 46 -26 55 -14 5 -20 2 -24 -13 -4 -13 -19 -23 -47 -30
-22 -6 -50 -15 -61 -19 -11 -5 -40 -15 -65 -22 -25 -7 -61 -22 -80 -33 -29
-17 -33 -18 -21 -3 12 15 11 17 -3 17 -9 0 -16 4 -16 9 0 15 81 76 114 85 l31
9 -26 9 c-35 12 -198 -21 -212 -43 -14 -22 5 -66 47 -110 18 -19 38 -45 45
-57 10 -19 18 -22 38 -17 16 4 22 2 18 -5 -3 -5 0 -10 7 -11 7 0 4 -4 -7 -9
-34 -15 7 -12 72 5 72 19 78 19 98 -1 13 -14 14 -19 3 -25 -7 -5 -8 -9 -3 -9
6 0 11 -14 12 -30 2 -26 -1 -30 -25 -31 -23 0 -24 -2 -7 -8 15 -6 10 -9 -25
-15 -25 -5 -39 -10 -32 -13 6 -3 12 -12 12 -20 0 -17 63 -83 78 -83 6 0 22 29
37 65 27 64 45 82 45 48 0 -10 -7 -58 -17 -108 -9 -49 -16 -98 -17 -107 0 -19
-26 -26 -26 -8 0 20 -21 9 -31 -16 -8 -22 -6 -29 8 -39 10 -7 33 -27 51 -43
32 -28 32 -31 13 -37 -12 -3 -25 -3 -31 0 -6 3 -20 3 -31 0 -20 -7 -20 -8 6
-21 15 -8 44 -14 65 -14 24 0 40 -5 44 -15 7 -18 -7 -19 -51 -3 -18 6 -35 9
-39 5 -3 -3 3 -26 15 -50 20 -41 26 -45 67 -52 49 -7 51 -25 2 -25 -17 0 -29
-3 -25 -6 3 -3 30 -6 59 -6 53 1 53 1 30 -17 -14 -10 -35 -16 -51 -13 -28 4
-51 -21 -31 -33 6 -4 10 -23 10 -44 0 -38 20 -68 34 -53 4 4 4 -6 0 -22 -5
-21 -4 -27 4 -22 8 5 10 2 6 -8 -3 -9 -17 -16 -30 -16 -16 0 -22 -4 -18 -14 3
-8 0 -17 -6 -21 -13 -8 -51 35 -45 53 5 14 -14 16 -34 3 -10 -6 -13 -33 -13
-97 1 -148 -4 -139 79 -142 59 -2 75 0 91 16 10 10 24 16 30 14 7 -2 12 1 12
7 0 6 10 11 23 12 21 0 21 1 2 8 -18 7 -17 8 7 13 15 3 32 0 37 -5 7 -7 18 -6
35 3 21 11 31 11 58 -1 18 -7 39 -12 46 -11 8 2 20 -2 28 -9 10 -8 14 -8 14 0
0 15 27 14 33 -1 4 -9 8 -10 14 -2 20 25 77 31 130 13 60 -20 87 -16 126 20
33 31 117 198 117 233 0 24 -2 25 -52 20 -33 -3 -60 -11 -70 -23 -20 -20 -24
-69 -7 -69 7 0 9 -10 4 -27 -11 -44 -25 -56 -62 -50 -22 4 -33 2 -33 -6 0 -7
-9 -18 -20 -24 -25 -17 -146 -8 -177 13 -21 13 -23 13 -23 -3 0 -14 -4 -13
-25 7 -14 13 -25 18 -25 12 0 -14 -36 -16 -44 -4 -3 5 -3 25 1 45 5 35 21 42
53 22 6 -3 10 3 10 14 0 20 14 34 38 37 16 3 13 -1 40 52 12 23 22 49 22 58 0
8 7 17 15 20 8 4 15 12 15 20 0 7 9 18 20 24 11 6 20 18 20 26 0 11 -10 8 -37
-13 -31 -24 -46 -28 -99 -28 -58 0 -66 3 -98 34 -20 19 -36 41 -36 48 0 7 -4
13 -8 13 -5 0 -15 12 -23 28 -7 15 -24 40 -36 55 -27 33 -21 57 8 31 11 -10
27 -14 39 -11 17 4 20 2 16 -10 -7 -17 33 -92 68 -132 30 -33 58 -41 99 -30
36 10 97 69 97 94 0 8 6 18 13 22 22 13 84 117 92 152 5 23 20 42 51 64 24 17
44 34 44 39 0 4 6 8 14 8 18 0 29 42 13 52 -7 4 -20 5 -30 2 -9 -3 -31 4 -47
16 -17 12 -30 18 -30 13 0 -4 9 -14 20 -21 34 -21 25 -31 -53 -56 -14 -4 -16
-1 -12 17 6 21 3 22 -47 19 -46 -3 -56 0 -77 22 -23 24 -23 26 -5 27 10 0 13
3 7 6 -10 3 -9 11 2 33 38 74 1 140 -80 140 -58 0 -99 -21 -114 -59 -15 -35
-7 -67 25 -102 l25 -26 -33 2 c-18 1 -45 7 -60 13 -24 10 -29 9 -38 -8 -12
-22 -4 -67 15 -78 6 -4 15 -25 18 -47 6 -39 5 -39 -11 -20 -9 11 -35 30 -58
42 -32 18 -43 20 -54 10 -12 -10 -12 -9 -1 5 20 27 2 42 -19 16 -14 -16 -19
-19 -19 -8 0 24 47 54 63 41 11 -9 18 -4 34 22 11 19 23 45 27 58 4 13 20 49
36 80 15 31 25 59 22 63 -4 3 2 6 13 7 11 0 14 3 6 6 -10 4 -9 10 5 26 18 20
17 20 -5 14 -17 -4 -23 0 -28 18 -3 13 -3 29 1 35 11 17 -25 51 -47 44 -23 -7
-23 4 -1 36 10 14 18 27 17 30 0 9 46 29 81 36 19 3 35 10 35 15 0 13 -18 11
-77 -10z m257 -683 c0 -7 -4 -19 -9 -27 -6 -9 -5 -24 0 -39 8 -21 7 -24 -10
-19 -12 3 -25 -2 -33 -12 -10 -13 -10 -14 1 -4 16 14 41 6 41 -12 0 -7 -14
-25 -31 -39 -23 -19 -42 -26 -74 -26 -24 0 -46 3 -49 8 -2 4 12 6 32 4 41 -4
92 12 92 28 0 7 -9 5 -22 -4 -31 -22 -64 -20 -104 5 -36 22 -44 39 -19 39 8 0
15 -4 15 -9 0 -5 7 -11 15 -15 25 -9 -3 27 -41 53 -21 15 -34 31 -33 45 0 21
1 21 11 -1 12 -24 33 -29 58 -13 9 5 19 5 27 -2 10 -8 18 -7 31 4 22 20 74 47
90 48 6 0 12 -6 12 -12z"/>
</g>
</svg>
